<?xml version="1.0" encoding="utf-8"?>
<!-- Generator: Adobe Illustrator 24.3.0, SVG Export Plug-In . SVG Version: 6.00 Build 0)  -->
<svg version="1.1" id="Слой_1" xmlns="http://www.w3.org/2000/svg" xmlns:xlink="http://www.w3.org/1999/xlink" x="0px" y="0px"
	 viewBox="0 0 800 288.3" style="enable-background:new 0 0 800 288.3;" xml:space="preserve">
<path d="M148.8,133.8c-2.7-14.5-21.7-22.5-40.6-12.3l4.9,16.6l7.7,24.6l3.5,11.2C138.3,164.8,152.5,153.9,148.8,133.8L148.8,133.8z
	 M130,156.2c-2.1-7.1-4.3-14.1-6.6-21.2l-2-6.8c3.7-0.8,7.5-0.4,11,1.1c1.8,0.9,4.9,2.8,5.5,6.5C139.6,144.2,136.8,150.1,130,156.2
	L130,156.2z M433.6,110.8c-10.5-9.7-26.8-9-36.5,1.5c-9.7,10.5-9,26.8,1.5,36.5c0.9,0.8,1.9,1.6,2.9,2.3l33.9-38.4
	C434.9,111.9,434.3,111.3,433.6,110.8L433.6,110.8z M401.6,137.8c-4.4-8.1-1.5-18.2,6.6-22.6c4.3-2.4,9.4-2.7,14-0.9L401.6,137.8z
	 M653.3,145.3c0.3,1.1,0.5,2.3,0.4,3.5c-0.3,7.2-7.1,12.7-15.1,12.3c-8-0.3-14.3-6.4-14-13.5c0.2-6.8,6.2-12.1,13.6-12.4
	c-1.4-0.3-2.9-0.5-4.4-0.6c-13.5-0.6-24.5,9-24.9,20.9c-0.6,12.7,9.6,23.1,22.9,23.6c13.5,0.5,24.5-9.1,25-21.7
	C656.9,153.2,655.7,148.9,653.3,145.3 M244.8,159.9c0,7.2-6.6,13-14.6,13c-8.1,0-14.6-5.8-14.6-13c0-6.7,5.8-12.3,13.1-12.9
	c-1.5-0.3-2.9-0.4-4.4-0.4c-13.5,0-24.1,10-24.1,21.9c0,12.7,10.7,22.7,23.9,22.7c13.5,0,24.1-9.9,24.1-22.7c0-4.3-1.4-8.5-4-11.9
	C244.6,157.5,244.8,158.6,244.8,159.9 M737.1,87l-6,24.6l-5.5-27.3l-73.9-16.2l0.5,41.1l11.1,2.5l-0.8,7.4l-0.3-0.2
	c-13.8-7.3-30.9-8-47-1.9c-5.4,2-10.5,4.8-15,8.1L589,54.6h-49.2l-1.3,8.1h-51.8l-5.9,36.2l-4.3-5.3c-12.5-15.3-31.1-24.2-50.8-24.3
	l43.9-23.6L439,0l-55.4,63.8l9.6,11.7c-8.3,3.3-15.9,8.2-22.5,14.3l-47.5-42.1l-16.6,31.8l0.6-30.5l-74.2,23.7l1.9,39.9l12.6-3.3
	l1.9,20.2c-14.4-6.4-31.8-6.3-47.9,0.5c-4.7,2.1-9.2,4.6-13.3,7.6c2.9-11.7,2-24.1-2.6-35.3c-5.6-12.7-15.1-23.2-27.2-30
	c-8.7-5.7-18.5-9.2-28.8-10.3C104,57.4,73.1,62,42.8,75c-10.7,4.5-21.1,9.9-30.9,16.1L0,98.6l7.2,12.1l22.2,37.6
	c0,0,6.8,11.5,6.8,11.5l12-5.9l1.7-0.8l55.3,123.3l5.3,11.8l12.3-3.9l29.9-9.6l13.1-4.2l-3.5-13.3l-15.9-61c4.6-3.4,8.8-7,12.8-10.7
	c-0.9,7.3-0.4,14.7,1.6,21.7c4.1,14.8,13.9,26.4,27.3,32.9c14.5,7,32.2,7,48.5,0.1c8.2-3.5,15.6-8.6,21.7-14.6l2.3,24.3l52.3-7.7
	l-0.1-46.9l109.4,54v-52.3c15.8-1.6,31.1-6.5,44.9-14.5l-4.6,28.1l59,9.3l3.2-21.2l15.4,28.5l9.4-18.2l3.5,29.8l66.8,11.7l-3.5-22.5
	c11.9,1.3,24-1,34.6-6.6l-2.7,23.9l44.5,6.3l0.3,18.2l46.3,14.6L800,102.3L737.1,87z M475.8,114l3.1-3.2l-3.7,23l-9.6-8.7L475.8,114
	z M436.6,20.3l16.2,22l-46.3,23l-3.2-4.9L436.6,20.3z M129.8,190l18.5,70.9l-29.9,9.6L57,133.4c-3.3,1.8-9.5,4.7-15.2,7.4
	l-22.2-37.5c8.9-5.6,18.5-10.6,28.8-15c28.9-12.3,56.6-16,78.7-12.1c7.8,0.9,16,3.2,23.3,8c9.9,5.6,17.5,13.5,21.9,23.7
	C183.1,132.6,165.2,168.2,129.8,190L129.8,190z M267.4,177.4c-0.3,10.6-4.2,21.1-10.7,30.1c-6.3,8.9-15,15.8-25,20.2
	c-26,11-51.9,0-58.8-24.7c-6.8-23.8,8.9-52.2,34-63c16.1-6.7,32.2-5.2,43.7,2.7c7.1,4.9,12.6,12.1,15.1,21.2
	C267,168.3,267.5,172.8,267.4,177.4L267.4,177.4z M408.6,227.5l-108.5-54.3l0.2,56.9l-28.1,3.8l-2-23.4c8.7-14.9,11.8-32.4,7.3-48.5
	c-2.4-8.6-7-16.4-13.3-22.7l-4-47.8l-12.6,3.3l-0.6-12.1l45.1-13.5l2.8,46.5l33.2-46.7l32.5,30.9L315.2,148l42.7,16.9
	c4.7,9,12,16.7,21.1,22.3c8.8,5.4,18.9,8.7,29.6,9.7L408.6,227.5L408.6,227.5z M352.2,148.8l-15.1-5.8l14.1-13.7
	C350.6,135.6,350.9,142.2,352.2,148.8L352.2,148.8z M470.3,163.1c-10.4,8.6-22.3,14.2-38,18c-3.3,0.8-6.7,1.4-10.1,1.7
	c-24.9,2.4-45.8-9-53.7-27.5c-1-2.2-1.8-4.6-2.3-7c-3.7-15.6-0.5-29.6,7.2-40.5c2.3-3.2,4.9-6.1,7.8-8.7c7.7-6.7,17-11.5,27.1-13.8
	c23.7-5.7,44.6,1.5,57.4,17.2l-45.2,48.1c3.9,0.3,7.8-0.1,11.5-1.1c10.8-2.6,16.8-8.3,22.1-14.5l18.1,16.2l5.5,5
	C475.3,158.6,472.9,160.9,470.3,163.1L470.3,163.1z M566.2,227.3l-9.8-65.1l-13.9,35.9l-20.8-44.9h-0.2l-8.2,52l-34.7-6l4.9-29
	c1.3-1.2,2.6-2.5,3.9-3.8l11.3-11.6l-11-9.8l11.7-69.1h35l8.7,47.9l9.8-55.4h25.1l10.4,67.5c-13.2,15-19.7,35.3-15.2,53.8
	c3.5,15.5,14.2,28.3,28.8,34.5l1.3,8.8L566.2,227.3z M652.7,206.1c-3.9,2.8-8.1,5-12.6,6.7c-8.2,3.3-17.1,4.2-25.8,2.6
	c-5.4-1-10.5-3.2-14.9-6.3c-7.3-5.3-12.3-13.1-14.3-21.8c-2.7-11.2-0.2-23.2,5.8-33.7c3-5.1,6.9-9.9,11.5-14.1
	c5.1-4.6,11-8.3,17.6-10.8c15.3-5.7,30.4-3.7,41,3.9c7.1,5.1,12.1,12.6,14.1,21.1c3.3,13.5-0.6,27.9-9.1,39.6
	C662.2,198,657.8,202.4,652.7,206.1L652.7,206.1z M730.8,267.4l-25.7-7.6l-2.2-94.6l-12.9,73l-28-4.5l2.1-21
	c18.2-15.5,27.9-39.8,22.6-61.9c-2.2-9.5-7.3-18.2-14.5-24.8l2.4-24.8L664,98.4l0.7-13.2l48.3,9.7l16.2,76.9l16.6-69l36.7,8.1
	L730.8,267.4z"/>
</svg>
