<?xml version="1.0" encoding="utf-8"?>
<!-- Generator: Adobe Illustrator 24.3.0, SVG Export Plug-In . SVG Version: 6.00 Build 0)  -->
<svg version="1.1" id="Слой_1" xmlns="http://www.w3.org/2000/svg" xmlns:xlink="http://www.w3.org/1999/xlink" x="0px" y="0px"
	 viewBox="0 0 800 800" style="enable-background:new 0 0 800 800;" xml:space="preserve">
<style type="text/css">
	.st0{fill-rule:evenodd;clip-rule:evenodd;}
</style>
<path class="st0" d="M400,314.4c-47.3,0-85.6,38.3-85.6,85.6s38.3,85.6,85.6,85.6s85.6-38.3,85.6-85.6S447.3,314.4,400,314.4z
	 M400,19.4c-132.1,0-254.7,68.5-324,180.9C6.7,312.8,0.7,453.1,60,571.1c7.1,14.1,24.2,19.8,38.3,12.7c0,0,0,0,0,0
	c14.1-7.1,19.7-24.2,12.7-38.3c-18.4-36.5-29.6-76.2-33.2-116.9h182.3C273.4,493.7,331,542.7,400,542.7s126.6-49,139.9-114.2h182.3
	c-3.6,40.7-14.9,80.4-33.2,116.9c-7.1,14.1-1.4,31.2,12.7,38.3c14.1,7.1,31.2,1.4,38.3-12.7c0,0,0,0,0,0
	c59.3-118,53.3-258.3-16-370.7C654.7,87.9,532.1,19.4,400,19.4z M400,76.5c112.3,0,216.5,58.2,275.4,153.8
	c26.8,43.5,42.4,91.9,46.7,141.2H539.9C526.6,306.3,469,257.3,400,257.3s-126.6,49-139.9,114.2H77.9c4.4-49.3,19.9-97.7,46.7-141.2
	C183.5,134.7,287.7,76.5,400,76.5z M541.8,542.7c-65.3,0-119,53.6-119,118.9c0,65.3,53.6,118.9,119,118.9
	c65.3,0,118.9-53.6,118.9-118.9C660.7,596.3,607.1,542.7,541.8,542.7z M541.8,595.8c36.3-0.1,65.8,29.3,65.9,65.6c0,0.1,0,0.2,0,0.3
	c0,36.4-29.4,65.9-65.9,65.9c-36.3,0.1-65.9-29.3-65.9-65.7c0-0.1,0-0.1,0-0.2c-0.1-36.3,29.3-65.8,65.6-65.9
	C541.6,595.8,541.7,595.8,541.8,595.8L541.8,595.8z M258.2,542.7c-65.4,0-118.9,53.6-118.9,118.9s53.6,118.9,118.9,118.9
	c65.4,0,118.9-53.6,118.9-118.9c0-14.6-11.9-26.5-26.5-26.5h-92.4c-14.6,0-26.5,11.9-26.5,26.5c0,0,0,0,0,0
	c0,14.6,11.9,26.5,26.5,26.5c0,0,0,0,0,0h60.4c-10.1,23.3-33.1,39.4-60.4,39.4c-36.7,0-65.9-29.2-65.9-65.9
	c0-36.7,29.2-65.9,65.9-65.9c17.4,0,34.2,6.9,46.5,19.3c10.4,10.4,27.1,10.4,37.5,0c0,0,0,0,0,0c10.4-10.4,10.4-27.1,0-37.5
	C320,555.2,289.8,542.7,258.2,542.7z"/>
</svg>
